<svg xmlns="http://www.w3.org/2000/svg" xmlns:xlink="http://www.w3.org/1999/xlink" version="1.1" viewBox="-1459 -946 3392 2696" width="3392px" height="2696px"><defs><style>@font-face{
    font-family:"DIN Next";
    font-weight: 400;
    src:url("https://whimsical.com/fonts/139e8e25-0eea-4cb4-a5d4-79048803e73d.eot?#iefix");
    src:url("https://whimsical.com/fonts/139e8e25-0eea-4cb4-a5d4-79048803e73d.eot?#iefix") format("eot"),url("https://whimsical.com/fonts/094b15e3-94bd-435b-a595-d40edfde661a.woff2") format("woff2"),url("https://whimsical.com/fonts/7e5fbe11-4858-4bd1-9ec6-a1d9f9d227aa.woff") format("woff"),url("https://whimsical.com/fonts/0f11eff9-9f05-46f5-9703-027c510065d7.ttf") format("truetype"),url("https://whimsical.com/fonts/48b61978-3f30-4274-823c-5cdcd1876918.svg#48b61978-3f30-4274-823c-5cdcd1876918") format("svg");
}
@font-face{
    font-family:"DIN Next";
    font-weight: 400;
    font-style: italic;
    src:url("https://whimsical.com/fonts/df24d5e8-5087-42fd-99b1-b16042d666c8.eot?#iefix");
    src:url("https://whimsical.com/fonts/df24d5e8-5087-42fd-99b1-b16042d666c8.eot?#iefix") format("eot"),url("https://whimsical.com/fonts/46251881-ffe9-4bfb-99c7-d6ce3bebaf3e.woff2") format("woff2"),url("https://whimsical.com/fonts/790ebbf2-62c5-4a32-946f-99d405f9243e.woff") format("woff"),url("https://whimsical.com/fonts/d28199e6-0f4a-42df-97f4-606701c6f75a.ttf") format("truetype"),url("https://whimsical.com/fonts/37a462c0-d86e-492c-b9ab-35e6bd417f6c.svg#37a462c0-d86e-492c-b9ab-35e6bd417f6c") format("svg");
}
@font-face{
    font-weight: 500;
    font-family:"DIN Next";
    src:url("https://whimsical.com/fonts/c5b058fc-55ce-4e06-a175-5c7d9a7e90f4.eot?#iefix");
    src:url("https://whimsical.com/fonts/c5b058fc-55ce-4e06-a175-5c7d9a7e90f4.eot?#iefix") format("eot"),url("https://whimsical.com/fonts/7b29ae40-30ff-4f99-a2b9-cde88669fa2f.woff2") format("woff2"),url("https://whimsical.com/fonts/bf73077c-e354-4562-a085-f4703eb1d653.woff") format("woff"),url("https://whimsical.com/fonts/0ffa6947-5317-4d07-b525-14d08a028821.ttf") format("truetype"),url("https://whimsical.com/fonts/9e423e45-5450-4991-a157-dbe6cf61eb4e.svg#9e423e45-5450-4991-a157-dbe6cf61eb4e") format("svg");
}
@font-face{
    font-family:"DIN Next";
    font-weight: 500;
    font-style: italic;
    src:url("https://whimsical.com/fonts/9897c008-fd65-48a4-afc7-36de2fea97b9.eot?#iefix");
    src:url("https://whimsical.com/fonts/9897c008-fd65-48a4-afc7-36de2fea97b9.eot?#iefix") format("eot"),url("https://whimsical.com/fonts/c7717981-647d-4b76-8817-33062e42d11f.woff2") format("woff2"),url("https://whimsical.com/fonts/b852cd4c-1255-40b1-a2be-73a9105b0155.woff") format("woff"),url("https://whimsical.com/fonts/821b00ad-e741-4e2d-af1a-85594367c8a2.ttf") format("truetype"),url("https://whimsical.com/fonts/d3e3b689-a6b0-45f2-b279-f5e194f87409.svg#d3e3b689-a6b0-45f2-b279-f5e194f87409") format("svg");
}
@font-face{
    font-weight: 700;
    font-family:"DIN Next";
    src:url("https://whimsical.com/fonts/81cd3b08-fd39-4ae3-8d05-9d24709eba84.eot?#iefix");
    src:url("https://whimsical.com/fonts/81cd3b08-fd39-4ae3-8d05-9d24709eba84.eot?#iefix") format("eot"),url("https://whimsical.com/fonts/31704504-4671-47a6-a61e-397f07410d91.woff2") format("woff2"),url("https://whimsical.com/fonts/b8a280da-481f-44a0-8d9c-1bc64bd7227c.woff") format("woff"),url("https://whimsical.com/fonts/276d122a-0fab-447b-9fc0-5d7fb0eafce2.ttf") format("truetype"),url("https://whimsical.com/fonts/8fb8273a-8213-4928-808b-b5bfaf3fd7e9.svg#8fb8273a-8213-4928-808b-b5bfaf3fd7e9") format("svg");
}
@font-face{
    font-family:"DIN Next";
    font-weight: 700;
    font-style: italic;
    src:url("https://whimsical.com/fonts/00cc6df3-ed32-4004-8dd8-1c576600a408.eot?#iefix");
    src:url("https://whimsical.com/fonts/00cc6df3-ed32-4004-8dd8-1c576600a408.eot?#iefix") format("eot"),url("https://whimsical.com/fonts/4132c4c8-680c-4d6d-9251-a2da38503bbd.woff2") format("woff2"),url("https://whimsical.com/fonts/366401fe-6df4-47be-8f55-8a411cff0dd2.woff") format("woff"),url("https://whimsical.com/fonts/dbe4f7ba-fc16-44a6-a577-571620e9edaf.ttf") format("truetype"),url("https://whimsical.com/fonts/f874edca-ee87-4ccf-8b1d-921fbc3c1c36.svg#f874edca-ee87-4ccf-8b1d-921fbc3c1c36") format("svg");
}

@font-face {
    font-family: 'PFDINMonoPro';
    src:url('https://whimsical.com/fonts/PFDINMonoPro-Regular.woff') format('woff');
    font-weight: 400;
}
@font-face {
    font-family: 'PFDINMonoPro';
    src:url('https://whimsical.com/fonts/PFDINMonoPro-Italic.woff') format('woff');
    font-style: italic;
    font-weight: 400;
}
@font-face {
    font-family: 'PFDINMonoPro';
    src:url('https://whimsical.com/fonts/PFDINMonoPro-Bold.woff') format('woff');
    font-weight: 700;
}
@font-face {
    font-family: 'PFDINMonoPro';
    src:url('https://whimsical.com/fonts/PFDINMonoPro-BoldItalic.woff') format('woff');
    font-style: italic;
    font-weight: 700;
}
* {-webkit-font-smoothing: auto; -moz-osx-font-smoothing: auto;}@media print { svg { width: 100%; height: 100%; } }</style><filter id="fill-shadow" x="-100%" y="-100%" width="300%" height="300%"><feGaussianBlur in="SourceAlpha" stdDeviation="6"></feGaussianBlur><feOffset result="offsetblur" dx="0" dy="2"></feOffset><feComponentTransfer result="s0"><feFuncA type="linear" slope="0.16"></feFuncA></feComponentTransfer><feMerge><feMergeNode in="s0"></feMergeNode><feMergeNode in="SourceGraphic"></feMergeNode></feMerge></filter><filter id="fill-light-shadow" x="-100%" y="-100%" width="300%" height="300%"><feGaussianBlur in="SourceAlpha" stdDeviation="6"></feGaussianBlur><feOffset result="offsetblur" dx="0" dy="2"></feOffset><feComponentTransfer result="s0"><feFuncA type="linear" slope="0.04"></feFuncA></feComponentTransfer><feMerge><feMergeNode in="s0"></feMergeNode><feMergeNode in="SourceGraphic"></feMergeNode></feMerge></filter><filter id="image-shadow" x="-100%" y="-100%" width="300%" height="300%"><feGaussianBlur in="SourceAlpha" stdDeviation="8"></feGaussianBlur><feOffset result="offsetblur" dx="0" dy="3"></feOffset><feComponentTransfer result="s0"><feFuncA type="linear" slope="0.06"></feFuncA></feComponentTransfer><feMerge><feMergeNode in="s0"></feMergeNode><feMergeNode in="SourceGraphic"></feMergeNode></feMerge></filter><filter id="frame-shadow" x="-100%" y="-100%" width="300%" height="300%"><feGaussianBlur in="SourceAlpha" stdDeviation="8"></feGaussianBlur><feOffset result="offsetblur" dx="0" dy="3"></feOffset><feComponentTransfer result="s0"><feFuncA type="linear" slope="0.06"></feFuncA></feComponentTransfer><feMerge><feMergeNode in="s0"></feMergeNode><feMergeNode in="SourceGraphic"></feMergeNode></feMerge></filter><filter id="badge-shadow" x="-100%" y="-100%" width="300%" height="300%"><feGaussianBlur in="SourceAlpha" stdDeviation="6"></feGaussianBlur><feOffset result="offsetblur" dx="0" dy="2"></feOffset><feComponentTransfer result="s0"><feFuncA type="linear" slope="0.08"></feFuncA></feComponentTransfer><feMerge><feMergeNode in="s0"></feMergeNode><feMergeNode in="SourceGraphic"></feMergeNode></feMerge></filter></defs><g><g><rect x="-1449" y="-936" width="3372" height="2676" rx="3" ry="3" fill="#FFFFFF"></rect></g><g><g><g><text y="-666" font-style="normal" font-size="27" font-weight="bold" fill="#293845" width="70" xml:space="preserve" x="559" font-family="DIN Next, sans-serif" height="36"><tspan x="559" y="-639" text-anchor="start" style="white-space:pre;">Notes</tspan></text></g></g><g><g><text y="-606" font-style="normal" font-size="18" font-weight="normal" fill="#293845" width="55" xml:space="preserve" x="559" font-family="DIN Next, sans-serif" height="24"><tspan x="559" y="-588" text-anchor="start" style="white-space:pre;">- TODO</tspan></text></g></g><g><g><g><g><circle cx="1146" cy="1482" r="30" fill="#4B5C6B"></circle></g></g><g><g><rect x="1041" y="-492" width="192" height="96" rx="3" ry="3" fill="#C3CFD9"></rect><text y="-456" font-style="normal" font-size="18" font-weight="normal" fill="#293845" width="168" xml:space="preserve" x="1053" font-family="DIN Next, sans-serif" height="24"><tspan x="1137" y="-438" text-anchor="middle" style="white-space:pre;">3rd Party</tspan></text></g></g><g><g><line stroke="#788896" fill="none" stroke-linejoin="round" y1="-388.0000948709722" stroke-linecap="round" stroke-width="4" x1="1137.0389605769271" y2="1444.000094870971" x2="1145.9610394230729"></line></g></g></g></g><g><g><text y="60" font-style="normal" font-size="18" font-weight="normal" fill="#293845" width="538" xml:space="preserve" x="-1257" font-family="DIN Next, sans-serif" height="48"><tspan x="-1257" y="78" text-anchor="start" style="white-space:pre;">The user should select wich blockchain address</tspan><tspan x="-1257" y="102" text-anchor="start" style="white-space:pre;">she want to associate as a controller for the initial verfication method</tspan></text></g></g><g><g><text y="-666" font-style="normal" font-size="27" font-weight="bold" fill="#293845" width="120" xml:space="preserve" x="115" font-family="DIN Next, sans-serif" height="36"><tspan x="115" y="-639" text-anchor="start" style="white-space:pre;">Questions</tspan></text></g></g><g><g><text y="-606" font-style="normal" font-size="18" font-weight="normal" fill="#293845" width="55" xml:space="preserve" x="115" font-family="DIN Next, sans-serif" height="24"><tspan x="115" y="-588" text-anchor="start" style="white-space:pre;">- TODO</tspan></text></g></g><g><g><text y="-276" font-style="normal" font-size="18" font-weight="normal" fill="#293845" width="370" xml:space="preserve" x="-648" font-family="DIN Next, sans-serif" height="48"><tspan x="-648" y="-258" text-anchor="start" style="white-space:pre;">Initiate here is the equivalent of double click on </tspan><tspan x="-648" y="-234" text-anchor="start" style="white-space:pre;">phone to access secure element</tspan></text></g></g><g><g><text y="-666" font-style="normal" font-size="36" font-weight="normal" fill="#293845" width="332" xml:space="preserve" x="-452" font-family="DIN Next, sans-serif" height="48"><tspan x="-452" y="-630" text-anchor="start" style="white-space:pre;">Create DID Document</tspan></text></g></g><g><g><g><g><circle cx="193" cy="1482" r="30" fill="#4B5C6B"></circle></g></g><g><g><rect x="91" y="-492" width="192" height="96" rx="3" ry="3" fill="#C3CFD9"></rect><text y="-456" font-style="normal" font-size="18" font-weight="normal" fill="#293845" width="168" xml:space="preserve" x="103" font-family="DIN Next, sans-serif" height="24"><tspan x="187" y="-438" text-anchor="middle" style="white-space:pre;">Sender Wallet App</tspan></text></g></g><g><g><line stroke="#788896" fill="none" stroke-linejoin="round" y1="-388.0000421652932" stroke-linecap="round" stroke-width="4" x1="187.02597388907375" y2="1444.0000421652933" x2="192.97402611092627"></line></g></g></g></g><g><g><g><g><line stroke="#788896" fill="none" stroke-linejoin="round" y1="-388.0000421652932" stroke-linecap="round" stroke-width="4" x1="662.0259738890738" y2="1444.0000421652933" x2="667.9740261109263"></line></g></g><g><g><circle cx="668" cy="1482" r="30" fill="#4B5C6B"></circle></g></g><g><g><rect x="566" y="-492" width="192" height="96" rx="3" ry="3" fill="#C3CFD9"></rect><text y="-468" font-style="normal" font-size="18" font-weight="normal" fill="#293845" width="168" xml:space="preserve" x="578" font-family="DIN Next, sans-serif" height="48"><tspan x="662" y="-450" text-anchor="middle" style="white-space:pre;">Cosmos </tspan><tspan x="662" y="-426" text-anchor="middle" style="white-space:pre;">Cash</tspan></text></g></g></g></g><g><g><g><g><line stroke="#788896" fill="none" stroke-linejoin="round" y1="-371.99999999999994" stroke-linecap="round" stroke-width="4" x1="-240" y2="1443.9999999999998" x2="-240"></line></g></g><g><g><circle cx="-240" cy="1482" r="30" fill="#4B5C6B"></circle></g></g><g><g><g transform="translate(-288 -504) rotate(0 48 48)"><svg id="s96010079-9554-49db-9528-b41473d6609b" width="96" height="96" viewBox="0 0 48 48" data-icon-name="single-body" data-icon-partition="c48-8"><g><path fill-rule="evenodd" clip-rule="evenodd" fill="#5A7A84" d="M24,1c-3.3077145,0-6,2.6914291-6,6s2.6922855,6,6,6 c3.3077087,0,6-2.6914291,6-6S27.3077087,1,24,1"></path><path fill-rule="evenodd" clip-rule="evenodd" fill="#335262" d="M20.0006599,15C16.6865864,15,14,17.6780396,14,21.0033302V31 c0,0.4589996,0.3120003,0.8590012,0.7580004,0.9700012l3.3049994,0.8259964l0.941,13.2870026 C19.0470009,46.6020012,19.4790001,47,20,47h8c0.5209999,0,0.9529991-0.3979988,0.9960003-0.9169998l0.941-13.2870026 l3.3050003-0.8259964C33.6879997,31.8590012,34,31.4589996,34,31v-9.9966698C34,17.6877804,31.3234596,15,27.9993401,15H20.0006599z "></path></g></svg></g><text y="-404" font-style="normal" font-size="18" font-weight="normal" fill="#293845" width="56" xml:space="preserve" x="-268" font-family="DIN Next, sans-serif" height="24"><tspan x="-240" y="-386" text-anchor="middle" style="white-space:pre;">Sender</tspan></text></g></g></g></g></g></g><g><g><path d="M164,520h-21M-3,520h-203" fill="none" stroke="#1AAE9F" stroke-linecap="round" stroke-linejoin="round" stroke-width="4"></path><polygon points="-202.9079,525.54095 -210,520 -202.9079,514.45905" fill="#1AAE9F" stroke="#1AAE9F" stroke-width="2" stroke-linecap="round" stroke-linejoin="round"></polygon><text y="508" font-style="normal" font-size="18" font-weight="normal" fill="#293845" width="138" xml:space="preserve" x="1" font-family="DIN Next, sans-serif" height="24"><tspan x="70" y="526" text-anchor="middle" style="white-space:pre;">request signature</tspan></text></g></g><g><g><path d="M-210,628h149.5M18.5,628h145.5" fill="none" stroke="#1AAE9F" stroke-linecap="round" stroke-linejoin="round" stroke-width="4"></path><polygon points="160.9079,622.45905 168,628 160.9079,633.54095" fill="#1AAE9F" stroke="#1AAE9F" stroke-width="2" stroke-linecap="round" stroke-linejoin="round"></polygon><text y="616" font-style="normal" font-size="18" font-weight="normal" fill="#293845" width="71" xml:space="preserve" x="-56.5" font-family="DIN Next, sans-serif" height="24"><tspan x="-21" y="634" text-anchor="middle" style="white-space:pre;">sign msg</tspan></text></g></g><g><g><path d="M-206,76h133.5M142.5,76h21.5" fill="none" stroke="#1AAE9F" stroke-linecap="round" stroke-linejoin="round" stroke-width="4"></path><polygon points="-202.9079,81.54095 -210,76 -202.9079,70.45905" fill="#1AAE9F" stroke="#1AAE9F" stroke-width="2" stroke-linecap="round" stroke-linejoin="round"></polygon><text y="64" font-style="normal" font-size="18" font-weight="normal" fill="#293845" width="207" xml:space="preserve" x="-68.5" font-family="DIN Next, sans-serif" height="24"><tspan x="35" y="82" text-anchor="middle" style="white-space:pre;">request controller address</tspan></text></g></g><g><g><path d="M212,-224h113c8.28426,0 15,6.71574 15,15v10M340,-147v18c0,8.28426 -6.71574,15 -15,15h-109" fill="none" stroke="#1AAE9F" stroke-linecap="round" stroke-linejoin="round" stroke-width="4"></path><polygon points="219.0921,-108.45905 212,-114 219.0921,-119.54095" fill="#1AAE9F" stroke="#1AAE9F" stroke-width="2" stroke-linecap="round" stroke-linejoin="round"></polygon><text y="-197" font-style="normal" font-size="18" font-weight="normal" fill="#293845" width="135" xml:space="preserve" x="272.5" font-family="DIN Next, sans-serif" height="48"><tspan x="340" y="-179" text-anchor="middle" style="white-space:pre;">generate UUIDv4 </tspan><tspan x="340" y="-155" text-anchor="middle" style="white-space:pre;">identifier</tspan></text></g></g><g><g><path d="M164,-256h-264M-162,-256h-48" fill="none" stroke="#1AAE9F" stroke-linecap="round" stroke-linejoin="round" stroke-width="4"></path><polygon points="160.9079,-261.54095 168,-256 160.9079,-250.45905" fill="#1AAE9F" stroke="#1AAE9F" stroke-width="2" stroke-linecap="round" stroke-linejoin="round"></polygon><text y="-268" font-style="normal" font-size="18" font-weight="normal" fill="#293845" width="54" xml:space="preserve" x="-158" font-family="DIN Next, sans-serif" height="24"><tspan x="-131" y="-250" text-anchor="middle" style="white-space:pre;">initiate</tspan></text></g></g><g><g><path d="M-210,172h90M2,172h162" fill="none" stroke="#1AAE9F" stroke-linecap="round" stroke-linejoin="round" stroke-width="4"></path><polygon points="160.9079,166.45905 168,172 160.9079,177.54095" fill="#1AAE9F" stroke="#1AAE9F" stroke-width="2" stroke-linecap="round" stroke-linejoin="round"></polygon><text y="160" font-style="normal" font-size="18" font-weight="normal" fill="#293845" width="114" xml:space="preserve" x="-116" font-family="DIN Next, sans-serif" height="24"><tspan x="-59" y="178" text-anchor="middle" style="white-space:pre;">select address</tspan></text></g></g><g><g><path d="M689,784h153c8.28426,0 15,6.71574 15,15v13M857,840v13c0,8.28426 -6.71574,15 -15,15h-149" fill="none" stroke="#1AAE9F" stroke-linecap="round" stroke-linejoin="round" stroke-width="4"></path><polygon points="696.0921,873.54095 689,868 696.0921,862.45905" fill="#1AAE9F" stroke="#1AAE9F" stroke-width="2" stroke-linecap="round" stroke-linejoin="round"></polygon><text y="814" font-style="normal" font-size="18" font-weight="normal" fill="#293845" width="77" xml:space="preserve" x="818.5" font-family="DIN Next, sans-serif" height="24"><tspan x="857" y="832" text-anchor="middle" style="white-space:pre;">commit tx</tspan></text></g></g><g><g><path d="M-270,580h-100M-428,580h-96" fill="none" stroke="#D3455B" stroke-linecap="round" stroke-linejoin="round" stroke-width="4" stroke-dasharray="12, 10" stroke-dashoffset="0"></path><polygon points="-520.9079,585.54095 -528,580 -520.9079,574.45905" fill="#D3455B" stroke="#D3455B" stroke-width="2" stroke-linecap="round" stroke-linejoin="round"></polygon><text y="568" font-style="normal" font-size="18" font-weight="normal" fill="#293845" width="50" xml:space="preserve" x="-424" font-family="DIN Next, sans-serif" height="24"><tspan x="-399" y="586" text-anchor="middle" style="white-space:pre;">cancel</tspan></text></g></g><g><g><path d="M212,-92h113c8.28426,0 15,6.71574 15,15v10M340,-15v18c0,8.28426 -6.71574,15 -15,15h-109" fill="none" stroke="#1AAE9F" stroke-linecap="round" stroke-linejoin="round" stroke-width="4"></path><polygon points="219.0921,23.54095 212,18 219.0921,12.45905" fill="#1AAE9F" stroke="#1AAE9F" stroke-width="2" stroke-linecap="round" stroke-linejoin="round"></polygon><text y="-65" font-style="normal" font-size="18" font-weight="normal" fill="#293845" width="120" xml:space="preserve" x="280" font-family="DIN Next, sans-serif" height="48"><tspan x="340" y="-47" text-anchor="middle" style="white-space:pre;">compose DID</tspan><tspan x="340" y="-23" text-anchor="middle" style="white-space:pre;">did:cash:{UUID}</tspan></text></g></g><g><g><line stroke-dasharray="12, 10" stroke="#C3CFD9" fill="none" stroke-linejoin="round" y1="80" stroke-dashoffset="0" stroke-linecap="round" stroke-width="4" x1="-711" y2="80" x2="-283"></line></g></g><g><g><path d="M212,208h113c8.28426,0 15,6.71574 15,15v10M340,285v18c0,8.28426 -6.71574,15 -15,15h-109" fill="none" stroke="#1AAE9F" stroke-linecap="round" stroke-linejoin="round" stroke-width="4"></path><polygon points="219.0921,323.54095 212,318 219.0921,312.45905" fill="#1AAE9F" stroke="#1AAE9F" stroke-width="2" stroke-linecap="round" stroke-linejoin="round"></polygon><text y="235" font-style="normal" font-size="18" font-weight="normal" fill="#293845" width="250" xml:space="preserve" x="215" font-family="DIN Next, sans-serif" height="48"><tspan x="340" y="253" text-anchor="middle" style="white-space:pre;">compose Verification Method</tspan><tspan x="340" y="277" text-anchor="middle" style="white-space:pre;">with controller did:cash:address</tspan></text></g></g><g><g><path d="M212,352h113c8.28426,0 15,6.71574 15,15v10M340,429v18c0,8.28426 -6.71574,15 -15,15h-109" fill="none" stroke="#1AAE9F" stroke-linecap="round" stroke-linejoin="round" stroke-width="4"></path><polygon points="219.0921,467.54095 212,462 219.0921,456.45905" fill="#1AAE9F" stroke="#1AAE9F" stroke-width="2" stroke-linecap="round" stroke-linejoin="round"></polygon><text y="379" font-style="normal" font-size="18" font-weight="normal" fill="#293845" width="249" xml:space="preserve" x="215.5" font-family="DIN Next, sans-serif" height="48"><tspan x="340" y="397" text-anchor="middle" style="white-space:pre;">compose MsgCreateIdentifier</tspan><tspan x="340" y="421" text-anchor="middle" style="white-space:pre;">with did and verification method</tspan></text></g></g><g><g><path d="M223,688h130M495,688h125" fill="none" stroke="#1AAE9F" stroke-linecap="round" stroke-linejoin="round" stroke-width="4"></path><polygon points="616.9079,682.45905 624,688 616.9079,693.54095" fill="#1AAE9F" stroke="#1AAE9F" stroke-width="2" stroke-linecap="round" stroke-linejoin="round"></polygon><text y="676" font-style="normal" font-size="18" font-weight="normal" fill="#293845" width="134" xml:space="preserve" x="357" font-family="DIN Next, sans-serif" height="24"><tspan x="424" y="694" text-anchor="middle" style="white-space:pre;">broadcast msg tx</tspan></text></g></g><g><g><path d="M620,736h-115.5M451.5,736h-111.5" fill="none" stroke="#D3455B" stroke-linecap="round" stroke-linejoin="round" stroke-width="4" stroke-dasharray="12, 10" stroke-dashoffset="0"></path><polygon points="343.0921,741.54095 336,736 343.0921,730.45905" fill="#D3455B" stroke="#D3455B" stroke-width="2" stroke-linecap="round" stroke-linejoin="round"></polygon><text y="724" font-style="normal" font-size="18" font-weight="normal" fill="#293845" width="45" xml:space="preserve" x="455.5" font-family="DIN Next, sans-serif" height="24"><tspan x="478" y="742" text-anchor="middle" style="white-space:pre;">reject</tspan></text></g></g><g><g><path d="M706,1012h226M1016,1012h100" fill="none" stroke="#1AAE9F" stroke-linecap="round" stroke-linejoin="round" stroke-width="4"></path><polygon points="709.0921,1017.54095 702,1012 709.0921,1006.45905" fill="#1AAE9F" stroke="#1AAE9F" stroke-width="2" stroke-linecap="round" stroke-linejoin="round"></polygon><text y="1000" font-style="normal" font-size="18" font-weight="normal" fill="#293845" width="76" xml:space="preserve" x="936" font-family="DIN Next, sans-serif" height="24"><tspan x="974" y="1018" text-anchor="middle" style="white-space:pre;">query DID</tspan></text></g></g><g><g><path d="M702,1072h76M956,1072h156" fill="none" stroke="#1AAE9F" stroke-linecap="round" stroke-linejoin="round" stroke-width="4"></path><polygon points="1108.9079,1066.45905 1116,1072 1108.9079,1077.54095" fill="#1AAE9F" stroke="#1AAE9F" stroke-width="2" stroke-linecap="round" stroke-linejoin="round"></polygon><text y="1060" font-style="normal" font-size="18" font-weight="normal" fill="#293845" width="170" xml:space="preserve" x="782" font-family="DIN Next, sans-serif" height="24"><tspan x="867" y="1078" text-anchor="middle" style="white-space:pre;">resolve DID document</tspan></text></g></g></svg>