<?xml version="1.0" encoding="UTF-8" standalone="no"?><svg xmlns="http://www.w3.org/2000/svg" xmlns:xlink="http://www.w3.org/1999/xlink" contentScriptType="application/ecmascript" contentStyleType="text/css" height="387px" preserveAspectRatio="none" style="width:2950px;height:387px;background:#FFFFFF;" version="1.1" viewBox="0 0 2950 387" width="2950px" zoomAndPan="magnify"><defs/><g><rect fill="#FEFECE" height="40.5938" rx="5" ry="5" style="stroke:#FEFECE;stroke-width:1.5;" width="128" x="10" y="218.205"/><text fill="#000000" font-family="sans-serif" font-size="14" lengthAdjust="spacing" textLength="96" x="15" y="233.2001">didDocument</text><text fill="#000000" font-family="sans-serif" font-size="14" lengthAdjust="spacing" textLength="0" x="133" y="233.2001"/><line style="stroke:#A80036;stroke-width:1.0;" x1="116" x2="116" y1="218.205" y2="238.5018"/><line style="stroke:#A80036;stroke-width:1.0;" x1="10" x2="138" y1="238.5018" y2="238.5018"/><text fill="#000000" font-family="sans-serif" font-size="14" lengthAdjust="spacing" textLength="89" x="15" y="253.497">didMetadata</text><text fill="#000000" font-family="sans-serif" font-size="14" lengthAdjust="spacing" textLength="0" x="133" y="253.497"/><line style="stroke:#A80036;stroke-width:1.0;" x1="116" x2="116" y1="238.5018" y2="258.7987"/><rect fill="none" height="40.5938" rx="5" ry="5" style="stroke:#A80036;stroke-width:1.5;" width="128" x="10" y="218.205"/><rect fill="#FEFECE" height="202.9688" rx="5" ry="5" style="stroke:#FEFECE;stroke-width:1.5;" width="677" x="175" y="57.205"/><text fill="#000000" font-family="sans-serif" font-size="14" lengthAdjust="spacing" textLength="53" x="180" y="72.2001">context</text><text fill="#000000" font-family="sans-serif" font-size="14" lengthAdjust="spacing" textLength="0" x="349" y="72.2001"/><line style="stroke:#A80036;stroke-width:1.0;" x1="332" x2="332" y1="57.205" y2="77.5018"/><line style="stroke:#A80036;stroke-width:1.0;" x1="175" x2="852" y1="77.5018" y2="77.5018"/><text fill="#000000" font-family="sans-serif" font-size="14" lengthAdjust="spacing" textLength="13" x="180" y="92.497">id</text><text fill="#000000" font-family="sans-serif" font-size="14" lengthAdjust="spacing" textLength="510" x="337" y="92.497">did:cosmos:key:cosmos17km4mldepzm4xxc50wv24ygrumtmskrd8f4tfh</text><line style="stroke:#A80036;stroke-width:1.0;" x1="332" x2="332" y1="77.5018" y2="97.7987"/><line style="stroke:#A80036;stroke-width:1.0;" x1="175" x2="852" y1="97.7987" y2="97.7987"/><text fill="#000000" font-family="sans-serif" font-size="14" lengthAdjust="spacing" textLength="69" x="180" y="112.7938">controller</text><text fill="#000000" font-family="sans-serif" font-size="14" lengthAdjust="spacing" textLength="0" x="349" y="112.7938"/><line style="stroke:#A80036;stroke-width:1.0;" x1="332" x2="332" y1="97.7987" y2="118.0956"/><line style="stroke:#A80036;stroke-width:1.0;" x1="175" x2="852" y1="118.0956" y2="118.0956"/><text fill="#000000" font-family="sans-serif" font-size="14" lengthAdjust="spacing" textLength="140" x="180" y="133.0907">verificationMethods</text><text fill="#000000" font-family="sans-serif" font-size="14" lengthAdjust="spacing" textLength="0" x="349" y="133.0907"/><line style="stroke:#A80036;stroke-width:1.0;" x1="332" x2="332" y1="118.0956" y2="138.3925"/><line style="stroke:#A80036;stroke-width:1.0;" x1="175" x2="852" y1="138.3925" y2="138.3925"/><text fill="#000000" font-family="sans-serif" font-size="14" lengthAdjust="spacing" textLength="58" x="180" y="153.3876">services</text><text fill="#000000" font-family="sans-serif" font-size="14" lengthAdjust="spacing" textLength="0" x="349" y="153.3876"/><line style="stroke:#A80036;stroke-width:1.0;" x1="332" x2="332" y1="138.3925" y2="158.6893"/><line style="stroke:#A80036;stroke-width:1.0;" x1="175" x2="852" y1="158.6893" y2="158.6893"/><text fill="#000000" font-family="sans-serif" font-size="14" lengthAdjust="spacing" textLength="103" x="180" y="173.6845">authentication</text><text fill="#000000" font-family="sans-serif" font-size="14" lengthAdjust="spacing" textLength="0" x="349" y="173.6845"/><line style="stroke:#A80036;stroke-width:1.0;" x1="332" x2="332" y1="158.6893" y2="178.9862"/><line style="stroke:#A80036;stroke-width:1.0;" x1="175" x2="852" y1="178.9862" y2="178.9862"/><text fill="#000000" font-family="sans-serif" font-size="14" lengthAdjust="spacing" textLength="118" x="180" y="193.9813">assertionMethod</text><text fill="#000000" font-family="sans-serif" font-size="14" lengthAdjust="spacing" textLength="0" x="349" y="193.9813"/><line style="stroke:#A80036;stroke-width:1.0;" x1="332" x2="332" y1="178.9862" y2="199.2831"/><line style="stroke:#A80036;stroke-width:1.0;" x1="175" x2="852" y1="199.2831" y2="199.2831"/><text fill="#000000" font-family="sans-serif" font-size="14" lengthAdjust="spacing" textLength="105" x="180" y="214.2782">keyAgreement</text><text fill="#000000" font-family="sans-serif" font-size="14" lengthAdjust="spacing" textLength="0" x="349" y="214.2782"/><line style="stroke:#A80036;stroke-width:1.0;" x1="332" x2="332" y1="199.2831" y2="219.58"/><line style="stroke:#A80036;stroke-width:1.0;" x1="175" x2="852" y1="219.58" y2="219.58"/><text fill="#000000" font-family="sans-serif" font-size="14" lengthAdjust="spacing" textLength="143" x="180" y="234.5751">capabilityInvocation</text><text fill="#000000" font-family="sans-serif" font-size="14" lengthAdjust="spacing" textLength="0" x="349" y="234.5751"/><line style="stroke:#A80036;stroke-width:1.0;" x1="332" x2="332" y1="219.58" y2="239.8768"/><line style="stroke:#A80036;stroke-width:1.0;" x1="175" x2="852" y1="239.8768" y2="239.8768"/><text fill="#000000" font-family="sans-serif" font-size="14" lengthAdjust="spacing" textLength="147" x="180" y="254.872">capabilityDelegation</text><text fill="#000000" font-family="sans-serif" font-size="14" lengthAdjust="spacing" textLength="0" x="349" y="254.872"/><line style="stroke:#A80036;stroke-width:1.0;" x1="332" x2="332" y1="239.8768" y2="260.1737"/><rect fill="none" height="202.9688" rx="5" ry="5" style="stroke:#A80036;stroke-width:1.5;" width="677" x="175" y="57.205"/><rect fill="#FEFECE" height="20.2969" rx="5" ry="5" style="stroke:#FEFECE;stroke-width:1.5;" width="215" x="1244.5" y="14.705"/><text fill="#000000" font-family="sans-serif" font-size="14" lengthAdjust="spacing" textLength="205" x="1249.5" y="29.7001">https://www.w3.org/ns/did/v1</text><rect fill="none" height="20.2969" rx="5" ry="5" style="stroke:#A80036;stroke-width:1.5;" width="215" x="1244.5" y="14.705"/><rect fill="#FEFECE" height="15" rx="5" ry="5" style="stroke:#FEFECE;stroke-width:1.5;" width="30" x="1340" y="52.705"/><rect fill="none" height="15" rx="5" ry="5" style="stroke:#A80036;stroke-width:1.5;" width="30" x="1340" y="52.705"/><rect fill="#FEFECE" height="20.2969" rx="5" ry="5" style="stroke:#FEFECE;stroke-width:1.5;" width="22" x="1340" y="86.705"/><text fill="#000000" font-family="sans-serif" font-size="14" lengthAdjust="spacing" textLength="0" x="1357" y="101.7001"/><rect fill="none" height="20.2969" rx="5" ry="5" style="stroke:#A80036;stroke-width:1.5;" width="22" x="1340" y="86.705"/><rect fill="#FEFECE" height="81.1875" rx="5" ry="5" style="stroke:#FEFECE;stroke-width:1.5;" width="1086" x="1852" y="56.205"/><text fill="#000000" font-family="sans-serif" font-size="14" lengthAdjust="spacing" textLength="13" x="1857" y="71.2001">id</text><text fill="#000000" font-family="sans-serif" font-size="14" lengthAdjust="spacing" textLength="916" x="2017" y="71.2001">did:cosmos:key:cosmos17km4mldepzm4xxc50wv24ygrumtmskrd8f4tfh#cosmos17km4mldepzm4xxc50wv24ygrumtmskrd8f4tfh</text><line style="stroke:#A80036;stroke-width:1.0;" x1="2012" x2="2012" y1="56.205" y2="76.5018"/><line style="stroke:#A80036;stroke-width:1.0;" x1="1852" x2="2938" y1="76.5018" y2="76.5018"/><text fill="#000000" font-family="sans-serif" font-size="14" lengthAdjust="spacing" textLength="31" x="1857" y="91.497">type</text><text fill="#000000" font-family="sans-serif" font-size="14" lengthAdjust="spacing" textLength="171" x="2017" y="91.497">CosmosAccountAddress</text><line style="stroke:#A80036;stroke-width:1.0;" x1="2012" x2="2012" y1="76.5018" y2="96.7987"/><line style="stroke:#A80036;stroke-width:1.0;" x1="1852" x2="2938" y1="96.7987" y2="96.7987"/><text fill="#000000" font-family="sans-serif" font-size="14" lengthAdjust="spacing" textLength="69" x="1857" y="111.7938">controller</text><text fill="#000000" font-family="sans-serif" font-size="14" lengthAdjust="spacing" textLength="510" x="2017" y="111.7938">did:cosmos:key:cosmos17km4mldepzm4xxc50wv24ygrumtmskrd8f4tfh</text><line style="stroke:#A80036;stroke-width:1.0;" x1="2012" x2="2012" y1="96.7987" y2="117.0956"/><line style="stroke:#A80036;stroke-width:1.0;" x1="1852" x2="2938" y1="117.0956" y2="117.0956"/><text fill="#000000" font-family="sans-serif" font-size="14" lengthAdjust="spacing" textLength="150" x="1857" y="132.0907">blockchainAccountID</text><text fill="#000000" font-family="sans-serif" font-size="14" lengthAdjust="spacing" textLength="394" x="2017" y="132.0907">cosmos17km4mldepzm4xxc50wv24ygrumtmskrd8f4tfh</text><line style="stroke:#A80036;stroke-width:1.0;" x1="2012" x2="2012" y1="117.0956" y2="137.3925"/><rect fill="none" height="81.1875" rx="5" ry="5" style="stroke:#A80036;stroke-width:1.5;" width="1086" x="1852" y="56.205"/><rect fill="#FEFECE" height="15" rx="5" ry="5" style="stroke:#FEFECE;stroke-width:1.5;" width="30" x="1340" y="124.705"/><rect fill="none" height="15" rx="5" ry="5" style="stroke:#A80036;stroke-width:1.5;" width="30" x="1340" y="124.705"/><rect fill="#FEFECE" height="20.2969" rx="5" ry="5" style="stroke:#FEFECE;stroke-width:1.5;" width="926" x="889" y="158.705"/><text fill="#000000" font-family="sans-serif" font-size="14" lengthAdjust="spacing" textLength="916" x="894" y="173.7001">did:cosmos:key:cosmos17km4mldepzm4xxc50wv24ygrumtmskrd8f4tfh#cosmos17km4mldepzm4xxc50wv24ygrumtmskrd8f4tfh</text><rect fill="none" height="20.2969" rx="5" ry="5" style="stroke:#A80036;stroke-width:1.5;" width="926" x="889" y="158.705"/><rect fill="#FEFECE" height="20.2969" rx="5" ry="5" style="stroke:#FEFECE;stroke-width:1.5;" width="926" x="889" y="196.705"/><text fill="#000000" font-family="sans-serif" font-size="14" lengthAdjust="spacing" textLength="916" x="894" y="211.7001">did:cosmos:key:cosmos17km4mldepzm4xxc50wv24ygrumtmskrd8f4tfh#cosmos17km4mldepzm4xxc50wv24ygrumtmskrd8f4tfh</text><rect fill="none" height="20.2969" rx="5" ry="5" style="stroke:#A80036;stroke-width:1.5;" width="926" x="889" y="196.705"/><rect fill="#FEFECE" height="20.2969" rx="5" ry="5" style="stroke:#FEFECE;stroke-width:1.5;" width="926" x="889" y="234.705"/><text fill="#000000" font-family="sans-serif" font-size="14" lengthAdjust="spacing" textLength="916" x="894" y="249.7001">did:cosmos:key:cosmos17km4mldepzm4xxc50wv24ygrumtmskrd8f4tfh#cosmos17km4mldepzm4xxc50wv24ygrumtmskrd8f4tfh</text><rect fill="none" height="20.2969" rx="5" ry="5" style="stroke:#A80036;stroke-width:1.5;" width="926" x="889" y="234.705"/><rect fill="#FEFECE" height="20.2969" rx="5" ry="5" style="stroke:#FEFECE;stroke-width:1.5;" width="926" x="889" y="272.705"/><text fill="#000000" font-family="sans-serif" font-size="14" lengthAdjust="spacing" textLength="916" x="894" y="287.7001">did:cosmos:key:cosmos17km4mldepzm4xxc50wv24ygrumtmskrd8f4tfh#cosmos17km4mldepzm4xxc50wv24ygrumtmskrd8f4tfh</text><rect fill="none" height="20.2969" rx="5" ry="5" style="stroke:#A80036;stroke-width:1.5;" width="926" x="889" y="272.705"/><rect fill="#FEFECE" height="20.2969" rx="5" ry="5" style="stroke:#FEFECE;stroke-width:1.5;" width="926" x="889" y="310.705"/><text fill="#000000" font-family="sans-serif" font-size="14" lengthAdjust="spacing" textLength="916" x="894" y="325.7001">did:cosmos:key:cosmos17km4mldepzm4xxc50wv24ygrumtmskrd8f4tfh#cosmos17km4mldepzm4xxc50wv24ygrumtmskrd8f4tfh</text><rect fill="none" height="20.2969" rx="5" ry="5" style="stroke:#A80036;stroke-width:1.5;" width="926" x="889" y="310.705"/><rect fill="#FEFECE" height="81.1875" rx="5" ry="5" style="stroke:#FEFECE;stroke-width:1.5;" width="647" x="190" y="278.205"/><text fill="#000000" font-family="sans-serif" font-size="14" lengthAdjust="spacing" textLength="65" x="195" y="293.2001">versionId</text><text fill="#000000" font-family="sans-serif" font-size="14" lengthAdjust="spacing" textLength="543" x="289" y="293.2001">29bff1f0488f56db53fcf8a886b41ba441fd7c54096685bd6c7c1eb85c343214</text><line style="stroke:#A80036;stroke-width:1.0;" x1="284" x2="284" y1="278.205" y2="298.5018"/><line style="stroke:#A80036;stroke-width:1.0;" x1="190" x2="837" y1="298.5018" y2="298.5018"/><text fill="#000000" font-family="sans-serif" font-size="14" lengthAdjust="spacing" textLength="55" x="195" y="313.497">created</text><text fill="#000000" font-family="sans-serif" font-size="14" lengthAdjust="spacing" textLength="250" x="289" y="313.497">2021-08-12T21:16:06.175990696Z</text><line style="stroke:#A80036;stroke-width:1.0;" x1="284" x2="284" y1="298.5018" y2="318.7987"/><line style="stroke:#A80036;stroke-width:1.0;" x1="190" x2="837" y1="318.7987" y2="318.7987"/><text fill="#000000" font-family="sans-serif" font-size="14" lengthAdjust="spacing" textLength="59" x="195" y="333.7938">updated</text><text fill="#000000" font-family="sans-serif" font-size="14" lengthAdjust="spacing" textLength="250" x="289" y="333.7938">2021-08-12T21:16:06.175990696Z</text><line style="stroke:#A80036;stroke-width:1.0;" x1="284" x2="284" y1="318.7987" y2="339.0956"/><line style="stroke:#A80036;stroke-width:1.0;" x1="190" x2="837" y1="339.0956" y2="339.0956"/><text fill="#000000" font-family="sans-serif" font-size="14" lengthAdjust="spacing" textLength="84" x="195" y="354.0907">deactivated</text><text fill="#000000" font-family="sans-serif" font-size="14" lengthAdjust="spacing" textLength="51" x="289" y="354.0907">☐ false</text><line style="stroke:#A80036;stroke-width:1.0;" x1="284" x2="284" y1="339.0956" y2="359.3925"/><rect fill="none" height="81.1875" rx="5" ry="5" style="stroke:#A80036;stroke-width:1.5;" width="647" x="190" y="278.205"/><path d="M840,66.705 L853,66.705 C871.9867,66.705 870.8884,49.4028 889,43.705 C1009.7264,5.7252 1156.9461,7.2835 1252.3751,14.1073 " fill="none" style="stroke:#A80036;stroke-width:1.0;stroke-dasharray:3.0,3.0;"/><path d="M1252.149,17.1623 L1254.6663,14.2769 L1252.6012,11.0523 L1260.0126,14.6726 L1252.149,17.1623 " fill="#A80036" style="stroke:#A80036;stroke-width:1.0;"/><ellipse cx="840" cy="66.705" fill="#A80036" rx="3" ry="3" style="stroke:#A80036;stroke-width:1.0;stroke-dasharray:3.0,3.0;"/><path d="M840,106.705 L853,106.705 C873.5456,106.705 869.7529,84.8932 889,77.705 C972.1684,46.6439 1256.3806,56.5403 1332.5756,59.8287 " fill="none" style="stroke:#A80036;stroke-width:1.0;stroke-dasharray:3.0,3.0;"/><path d="M1332.4364,62.9724 L1334.9334,59.9331 L1332.7149,56.685 L1340.4349,60.1768 L1332.4364,62.9724 " fill="#A80036" style="stroke:#A80036;stroke-width:1.0;"/><ellipse cx="840" cy="106.705" fill="#A80036" rx="3" ry="3" style="stroke:#A80036;stroke-width:1.0;stroke-dasharray:3.0,3.0;"/><path d="M1351.5625,96.705 L1364.5625,96.705 C1416.3519,96.705 1627.1157,96.705 1844.6133,96.705 " fill="none" style="stroke:#A80036;stroke-width:1.0;stroke-dasharray:3.0,3.0;"/><path d="M1844.6133,99.8008 L1846.9351,96.705 L1844.6133,93.6091 L1852.3529,96.705 L1844.6133,99.8008 " fill="#A80036" style="stroke:#A80036;stroke-width:1.0;"/><ellipse cx="1351.5625" cy="96.705" fill="#A80036" rx="3" ry="3" style="stroke:#A80036;stroke-width:1.0;stroke-dasharray:3.0,3.0;"/><path d="M840,127.705 L853,127.705 C869.8655,127.705 872.4113,118.7477 889,115.705 C1058.8293,84.5548 1269.367,92.3084 1332.6585,95.6055 " fill="none" style="stroke:#A80036;stroke-width:1.0;stroke-dasharray:3.0,3.0;"/><path d="M1332.4932,98.6525 L1334.9438,95.7295 L1332.8238,92.5585 L1340.276,96.0188 L1332.4932,98.6525 " fill="#A80036" style="stroke:#A80036;stroke-width:1.0;"/><ellipse cx="840" cy="127.705" fill="#A80036" rx="3" ry="3" style="stroke:#A80036;stroke-width:1.0;stroke-dasharray:3.0,3.0;"/><path d="M840,147.705 L853,147.705 C1040.2394,147.705 1266.8595,137.0014 1332.7199,133.6776 " fill="none" style="stroke:#A80036;stroke-width:1.0;stroke-dasharray:3.0,3.0;"/><path d="M1332.8737,136.6986 L1334.9857,133.5622 L1332.5661,130.6565 L1340.2725,133.293 L1332.8737,136.6986 " fill="#A80036" style="stroke:#A80036;stroke-width:1.0;"/><ellipse cx="840" cy="147.705" fill="#A80036" rx="3" ry="3" style="stroke:#A80036;stroke-width:1.0;stroke-dasharray:3.0,3.0;"/><path d="M840,168.705 L853,168.705 C862.4752,168.705 872.0516,168.705 881.7034,168.705 " fill="none" style="stroke:#A80036;stroke-width:1.0;stroke-dasharray:3.0,3.0;"/><path d="M881.7034,171.8074 L884.0303,168.705 L881.7034,165.6025 L889.4596,168.705 L881.7034,171.8074 " fill="#A80036" style="stroke:#A80036;stroke-width:1.0;"/><ellipse cx="840" cy="168.705" fill="#A80036" rx="3" ry="3" style="stroke:#A80036;stroke-width:1.0;stroke-dasharray:3.0,3.0;"/><path d="M840,188.705 L853,188.705 C952.8167,188.705 1063.8028,192.3537 1155.6668,196.3657 " fill="none" style="stroke:#A80036;stroke-width:1.0;stroke-dasharray:3.0,3.0;"/><path d="M1155.5311,199.4463 L1157.9772,196.4674 L1155.8024,193.2851 L1163.3683,196.7048 L1155.5311,199.4463 " fill="#A80036" style="stroke:#A80036;stroke-width:1.0;"/><ellipse cx="840" cy="188.705" fill="#A80036" rx="3" ry="3" style="stroke:#A80036;stroke-width:1.0;stroke-dasharray:3.0,3.0;"/><path d="M840,209.705 L853,209.705 C870.5091,209.705 871.9506,221.7194 889,225.705 C900.9076,228.4885 913.0338,231.0083 925.3104,233.2859 " fill="none" style="stroke:#A80036;stroke-width:1.0;stroke-dasharray:3.0,3.0;"/><path d="M924.7556,236.351 L927.6092,233.702 L925.8651,230.2208 L932.9731,234.6729 L924.7556,236.351 " fill="#A80036" style="stroke:#A80036;stroke-width:1.0;"/><ellipse cx="840" cy="209.705" fill="#A80036" rx="3" ry="3" style="stroke:#A80036;stroke-width:1.0;stroke-dasharray:3.0,3.0;"/><path d="M840,229.705 L853,229.705 C875.0079,229.705 868.7204,255.1561 889,263.705 C895.2915,266.3572 902.7855,268.741 911.2946,270.8804 " fill="none" style="stroke:#A80036;stroke-width:1.0;stroke-dasharray:3.0,3.0;"/><path d="M910.5985,273.8333 L913.5093,271.4024 L911.9906,267.9275 L918.6768,272.6205 L910.5985,273.8333 " fill="#A80036" style="stroke:#A80036;stroke-width:1.0;"/><ellipse cx="840" cy="229.705" fill="#A80036" rx="3" ry="3" style="stroke:#A80036;stroke-width:1.0;stroke-dasharray:3.0,3.0;"/><path d="M840,249.705 L853,249.705 C881.1091,249.705 864.3746,288.151 889,301.705 C1022.7402,375.3164 1212.6644,350.1439 1301.7492,332.2589 " fill="none" style="stroke:#A80036;stroke-width:1.0;stroke-dasharray:3.0,3.0;"/><path d="M1302.3663,335.2703 L1304.0077,331.7961 L1301.1322,329.2475 L1309.2777,330.7163 L1302.3663,335.2703 " fill="#A80036" style="stroke:#A80036;stroke-width:1.0;"/><ellipse cx="840" cy="249.705" fill="#A80036" rx="3" ry="3" style="stroke:#A80036;stroke-width:1.0;stroke-dasharray:3.0,3.0;"/><path d="M126,227.705 L139,227.705 C148.4429,227.705 157.998,227.4896 167.6233,227.083 " fill="none" style="stroke:#A80036;stroke-width:1.0;stroke-dasharray:3.0,3.0;"/><path d="M167.77,230.1764 L169.9434,226.973 L167.4767,223.9896 L175.3569,226.7163 L167.77,230.1764 " fill="#A80036" style="stroke:#A80036;stroke-width:1.0;"/><ellipse cx="126" cy="227.705" fill="#A80036" rx="3" ry="3" style="stroke:#A80036;stroke-width:1.0;stroke-dasharray:3.0,3.0;"/><path d="M126,248.705 L139,248.705 C157.5233,248.705 157.5127,263.5972 175,269.705 C181.1357,271.848 187.3656,273.8973 193.6704,275.857 " fill="none" style="stroke:#A80036;stroke-width:1.0;stroke-dasharray:3.0,3.0;"/><path d="M192.7666,278.8308 L195.9008,276.5349 L194.5743,272.8832 L201.105,278.1166 L192.7666,278.8308 " fill="#A80036" style="stroke:#A80036;stroke-width:1.0;"/><ellipse cx="126" cy="248.705" fill="#A80036" rx="3" ry="3" style="stroke:#A80036;stroke-width:1.0;stroke-dasharray:3.0,3.0;"/><!--MD5=[176129ca04d248c042035f1abea6899e]
@startjson QueryDidDocumentResponse_Key
{
  "didDocument": {
    "context": [
      "https://www.w3.org/ns/did/v1"
    ],
    "id": "did:cosmos:key:cosmos17km4mldepzm4xxc50wv24ygrumtmskrd8f4tfh",
    "controller": [],
    "verificationMethods": [
      {
        "id": "did:cosmos:key:cosmos17km4mldepzm4xxc50wv24ygrumtmskrd8f4tfh#cosmos17km4mldepzm4xxc50wv24ygrumtmskrd8f4tfh",
        "type": "CosmosAccountAddress",
        "controller": "did:cosmos:key:cosmos17km4mldepzm4xxc50wv24ygrumtmskrd8f4tfh",
        "blockchainAccountID": "cosmos17km4mldepzm4xxc50wv24ygrumtmskrd8f4tfh"
      }
    ],
    "services": [],
    "authentication": [
      "did:cosmos:key:cosmos17km4mldepzm4xxc50wv24ygrumtmskrd8f4tfh#cosmos17km4mldepzm4xxc50wv24ygrumtmskrd8f4tfh"
    ],
    "assertionMethod": [
      "did:cosmos:key:cosmos17km4mldepzm4xxc50wv24ygrumtmskrd8f4tfh#cosmos17km4mldepzm4xxc50wv24ygrumtmskrd8f4tfh"
    ],
    "keyAgreement": [
      "did:cosmos:key:cosmos17km4mldepzm4xxc50wv24ygrumtmskrd8f4tfh#cosmos17km4mldepzm4xxc50wv24ygrumtmskrd8f4tfh"
    ],
    "capabilityInvocation": [
      "did:cosmos:key:cosmos17km4mldepzm4xxc50wv24ygrumtmskrd8f4tfh#cosmos17km4mldepzm4xxc50wv24ygrumtmskrd8f4tfh"
    ],
    "capabilityDelegation": [
      "did:cosmos:key:cosmos17km4mldepzm4xxc50wv24ygrumtmskrd8f4tfh#cosmos17km4mldepzm4xxc50wv24ygrumtmskrd8f4tfh"
    ]
  },
  "didMetadata": {
    "versionId": "29bff1f0488f56db53fcf8a886b41ba441fd7c54096685bd6c7c1eb85c343214",
    "created": "2021-08-12T21:16:06.175990696Z",
    "updated": "2021-08-12T21:16:06.175990696Z",
    "deactivated": false
  }
}

@endjson

PlantUML version 1.2021.7(Sun May 23 14:40:07 CEST 2021)
(GPL source distribution)
Java Runtime: Java(TM) SE Runtime Environment
JVM: Java HotSpot(TM) 64-Bit Server VM
Default Encoding: UTF-8
Language: en
Country: US
--></g></svg>