<?xml version="1.0" encoding="UTF-8" standalone="no"?><svg xmlns="http://www.w3.org/2000/svg" xmlns:xlink="http://www.w3.org/1999/xlink" contentScriptType="application/ecmascript" contentStyleType="text/css" height="366px" preserveAspectRatio="none" style="width:2263px;height:366px;background:#FFFFFF;" version="1.1" viewBox="0 0 2263 366" width="2263px" zoomAndPan="magnify"><defs/><g><rect fill="#FEFECE" height="40.5938" rx="5" ry="5" style="stroke:#FEFECE;stroke-width:1.5;" width="128" x="10" y="213.5"/><text fill="#000000" font-family="sans-serif" font-size="14" lengthAdjust="spacing" textLength="96" x="15" y="228.4951">didDocument</text><text fill="#000000" font-family="sans-serif" font-size="14" lengthAdjust="spacing" textLength="0" x="133" y="228.4951"/><line style="stroke:#A80036;stroke-width:1.0;" x1="116" x2="116" y1="213.5" y2="233.7969"/><line style="stroke:#A80036;stroke-width:1.0;" x1="10" x2="138" y1="233.7969" y2="233.7969"/><text fill="#000000" font-family="sans-serif" font-size="14" lengthAdjust="spacing" textLength="89" x="15" y="248.792">didMetadata</text><text fill="#000000" font-family="sans-serif" font-size="14" lengthAdjust="spacing" textLength="0" x="133" y="248.792"/><line style="stroke:#A80036;stroke-width:1.0;" x1="116" x2="116" y1="233.7969" y2="254.0938"/><rect fill="none" height="40.5938" rx="5" ry="5" style="stroke:#A80036;stroke-width:1.5;" width="128" x="10" y="213.5"/><rect fill="#FEFECE" height="202.9688" rx="5" ry="5" style="stroke:#FEFECE;stroke-width:1.5;" width="372" x="315.5" y="52.5"/><text fill="#000000" font-family="sans-serif" font-size="14" lengthAdjust="spacing" textLength="53" x="320.5" y="67.4951">context</text><text fill="#000000" font-family="sans-serif" font-size="14" lengthAdjust="spacing" textLength="0" x="489.5" y="67.4951"/><line style="stroke:#A80036;stroke-width:1.0;" x1="472.5" x2="472.5" y1="52.5" y2="72.7969"/><line style="stroke:#A80036;stroke-width:1.0;" x1="315.5" x2="687.5" y1="72.7969" y2="72.7969"/><text fill="#000000" font-family="sans-serif" font-size="14" lengthAdjust="spacing" textLength="13" x="320.5" y="87.792">id</text><text fill="#000000" font-family="sans-serif" font-size="14" lengthAdjust="spacing" textLength="205" x="477.5" y="87.792">did:cosmos:cash:123456789</text><line style="stroke:#A80036;stroke-width:1.0;" x1="472.5" x2="472.5" y1="72.7969" y2="93.0938"/><line style="stroke:#A80036;stroke-width:1.0;" x1="315.5" x2="687.5" y1="93.0938" y2="93.0938"/><text fill="#000000" font-family="sans-serif" font-size="14" lengthAdjust="spacing" textLength="69" x="320.5" y="108.0889">controller</text><text fill="#000000" font-family="sans-serif" font-size="14" lengthAdjust="spacing" textLength="0" x="489.5" y="108.0889"/><line style="stroke:#A80036;stroke-width:1.0;" x1="472.5" x2="472.5" y1="93.0938" y2="113.3906"/><line style="stroke:#A80036;stroke-width:1.0;" x1="315.5" x2="687.5" y1="113.3906" y2="113.3906"/><text fill="#000000" font-family="sans-serif" font-size="14" lengthAdjust="spacing" textLength="140" x="320.5" y="128.3857">verificationMethods</text><text fill="#000000" font-family="sans-serif" font-size="14" lengthAdjust="spacing" textLength="0" x="489.5" y="128.3857"/><line style="stroke:#A80036;stroke-width:1.0;" x1="472.5" x2="472.5" y1="113.3906" y2="133.6875"/><line style="stroke:#A80036;stroke-width:1.0;" x1="315.5" x2="687.5" y1="133.6875" y2="133.6875"/><text fill="#000000" font-family="sans-serif" font-size="14" lengthAdjust="spacing" textLength="58" x="320.5" y="148.6826">services</text><text fill="#000000" font-family="sans-serif" font-size="14" lengthAdjust="spacing" textLength="0" x="489.5" y="148.6826"/><line style="stroke:#A80036;stroke-width:1.0;" x1="472.5" x2="472.5" y1="133.6875" y2="153.9844"/><line style="stroke:#A80036;stroke-width:1.0;" x1="315.5" x2="687.5" y1="153.9844" y2="153.9844"/><text fill="#000000" font-family="sans-serif" font-size="14" lengthAdjust="spacing" textLength="103" x="320.5" y="168.9795">authentication</text><text fill="#000000" font-family="sans-serif" font-size="14" lengthAdjust="spacing" textLength="0" x="489.5" y="168.9795"/><line style="stroke:#A80036;stroke-width:1.0;" x1="472.5" x2="472.5" y1="153.9844" y2="174.2813"/><line style="stroke:#A80036;stroke-width:1.0;" x1="315.5" x2="687.5" y1="174.2813" y2="174.2813"/><text fill="#000000" font-family="sans-serif" font-size="14" lengthAdjust="spacing" textLength="118" x="320.5" y="189.2764">assertionMethod</text><text fill="#000000" font-family="sans-serif" font-size="14" lengthAdjust="spacing" textLength="0" x="489.5" y="189.2764"/><line style="stroke:#A80036;stroke-width:1.0;" x1="472.5" x2="472.5" y1="174.2813" y2="194.5781"/><line style="stroke:#A80036;stroke-width:1.0;" x1="315.5" x2="687.5" y1="194.5781" y2="194.5781"/><text fill="#000000" font-family="sans-serif" font-size="14" lengthAdjust="spacing" textLength="105" x="320.5" y="209.5732">keyAgreement</text><text fill="#000000" font-family="sans-serif" font-size="14" lengthAdjust="spacing" textLength="0" x="489.5" y="209.5732"/><line style="stroke:#A80036;stroke-width:1.0;" x1="472.5" x2="472.5" y1="194.5781" y2="214.875"/><line style="stroke:#A80036;stroke-width:1.0;" x1="315.5" x2="687.5" y1="214.875" y2="214.875"/><text fill="#000000" font-family="sans-serif" font-size="14" lengthAdjust="spacing" textLength="143" x="320.5" y="229.8701">capabilityInvocation</text><text fill="#000000" font-family="sans-serif" font-size="14" lengthAdjust="spacing" textLength="0" x="489.5" y="229.8701"/><line style="stroke:#A80036;stroke-width:1.0;" x1="472.5" x2="472.5" y1="214.875" y2="235.1719"/><line style="stroke:#A80036;stroke-width:1.0;" x1="315.5" x2="687.5" y1="235.1719" y2="235.1719"/><text fill="#000000" font-family="sans-serif" font-size="14" lengthAdjust="spacing" textLength="147" x="320.5" y="250.167">capabilityDelegation</text><text fill="#000000" font-family="sans-serif" font-size="14" lengthAdjust="spacing" textLength="0" x="489.5" y="250.167"/><line style="stroke:#A80036;stroke-width:1.0;" x1="472.5" x2="472.5" y1="235.1719" y2="255.4688"/><rect fill="none" height="202.9688" rx="5" ry="5" style="stroke:#A80036;stroke-width:1.5;" width="372" x="315.5" y="52.5"/><rect fill="#FEFECE" height="20.2969" rx="5" ry="5" style="stroke:#FEFECE;stroke-width:1.5;" width="215" x="1068" y="10"/><text fill="#000000" font-family="sans-serif" font-size="14" lengthAdjust="spacing" textLength="205" x="1073" y="24.9951">https://www.w3.org/ns/did/v1</text><rect fill="none" height="20.2969" rx="5" ry="5" style="stroke:#A80036;stroke-width:1.5;" width="215" x="1068" y="10"/><rect fill="#FEFECE" height="15" rx="5" ry="5" style="stroke:#FEFECE;stroke-width:1.5;" width="30" x="1163.5" y="48"/><rect fill="none" height="15" rx="5" ry="5" style="stroke:#A80036;stroke-width:1.5;" width="30" x="1163.5" y="48"/><rect fill="#FEFECE" height="20.2969" rx="5" ry="5" style="stroke:#FEFECE;stroke-width:1.5;" width="22" x="1163.5" y="82"/><text fill="#000000" font-family="sans-serif" font-size="14" lengthAdjust="spacing" textLength="0" x="1180.5" y="96.9951"/><rect fill="none" height="20.2969" rx="5" ry="5" style="stroke:#A80036;stroke-width:1.5;" width="22" x="1163.5" y="82"/><rect fill="#FEFECE" height="81.1875" rx="5" ry="5" style="stroke:#FEFECE;stroke-width:1.5;" width="728" x="1523" y="51.5"/><text fill="#000000" font-family="sans-serif" font-size="14" lengthAdjust="spacing" textLength="13" x="1528" y="66.4951">id</text><text fill="#000000" font-family="sans-serif" font-size="14" lengthAdjust="spacing" textLength="611" x="1635" y="66.4951">did:cosmos:cash:123456789#cosmos17km4mldepzm4xxc50wv24ygrumtmskrd8f4tfh</text><line style="stroke:#A80036;stroke-width:1.0;" x1="1630" x2="1630" y1="51.5" y2="71.7969"/><line style="stroke:#A80036;stroke-width:1.0;" x1="1523" x2="2251" y1="71.7969" y2="71.7969"/><text fill="#000000" font-family="sans-serif" font-size="14" lengthAdjust="spacing" textLength="31" x="1528" y="86.792">type</text><text fill="#000000" font-family="sans-serif" font-size="14" lengthAdjust="spacing" textLength="277" x="1635" y="86.792">EcdsaSecp256k1VerificationKey2019</text><line style="stroke:#A80036;stroke-width:1.0;" x1="1630" x2="1630" y1="71.7969" y2="92.0938"/><line style="stroke:#A80036;stroke-width:1.0;" x1="1523" x2="2251" y1="92.0938" y2="92.0938"/><text fill="#000000" font-family="sans-serif" font-size="14" lengthAdjust="spacing" textLength="69" x="1528" y="107.0889">controller</text><text fill="#000000" font-family="sans-serif" font-size="14" lengthAdjust="spacing" textLength="205" x="1635" y="107.0889">did:cosmos:cash:123456789</text><line style="stroke:#A80036;stroke-width:1.0;" x1="1630" x2="1630" y1="92.0938" y2="112.3906"/><line style="stroke:#A80036;stroke-width:1.0;" x1="1523" x2="2251" y1="112.3906" y2="112.3906"/><text fill="#000000" font-family="sans-serif" font-size="14" lengthAdjust="spacing" textLength="97" x="1528" y="127.3857">publicKeyHex</text><text fill="#000000" font-family="sans-serif" font-size="14" lengthAdjust="spacing" textLength="579" x="1635" y="127.3857">0381517311d6b3e6f849fc617b721f7d84ca8c28d006677bb7a5ea09423049368b</text><line style="stroke:#A80036;stroke-width:1.0;" x1="1630" x2="1630" y1="112.3906" y2="132.6875"/><rect fill="none" height="81.1875" rx="5" ry="5" style="stroke:#A80036;stroke-width:1.5;" width="728" x="1523" y="51.5"/><rect fill="#FEFECE" height="15" rx="5" ry="5" style="stroke:#FEFECE;stroke-width:1.5;" width="30" x="1163.5" y="120"/><rect fill="none" height="15" rx="5" ry="5" style="stroke:#A80036;stroke-width:1.5;" width="30" x="1163.5" y="120"/><rect fill="#FEFECE" height="20.2969" rx="5" ry="5" style="stroke:#FEFECE;stroke-width:1.5;" width="621" x="865" y="154"/><text fill="#000000" font-family="sans-serif" font-size="14" lengthAdjust="spacing" textLength="611" x="870" y="168.9951">did:cosmos:cash:123456789#cosmos17km4mldepzm4xxc50wv24ygrumtmskrd8f4tfh</text><rect fill="none" height="20.2969" rx="5" ry="5" style="stroke:#A80036;stroke-width:1.5;" width="621" x="865" y="154"/><rect fill="#FEFECE" height="15" rx="5" ry="5" style="stroke:#FEFECE;stroke-width:1.5;" width="30" x="1163.5" y="192"/><rect fill="none" height="15" rx="5" ry="5" style="stroke:#A80036;stroke-width:1.5;" width="30" x="1163.5" y="192"/><rect fill="#FEFECE" height="15" rx="5" ry="5" style="stroke:#FEFECE;stroke-width:1.5;" width="30" x="1163.5" y="226"/><rect fill="none" height="15" rx="5" ry="5" style="stroke:#A80036;stroke-width:1.5;" width="30" x="1163.5" y="226"/><rect fill="#FEFECE" height="15" rx="5" ry="5" style="stroke:#FEFECE;stroke-width:1.5;" width="30" x="1163.5" y="260"/><rect fill="none" height="15" rx="5" ry="5" style="stroke:#A80036;stroke-width:1.5;" width="30" x="1163.5" y="260"/><rect fill="#FEFECE" height="15" rx="5" ry="5" style="stroke:#FEFECE;stroke-width:1.5;" width="30" x="1163.5" y="294"/><rect fill="none" height="15" rx="5" ry="5" style="stroke:#A80036;stroke-width:1.5;" width="30" x="1163.5" y="294"/><rect fill="#FEFECE" height="81.1875" rx="5" ry="5" style="stroke:#FEFECE;stroke-width:1.5;" width="653" x="175" y="273.5"/><text fill="#000000" font-family="sans-serif" font-size="14" lengthAdjust="spacing" textLength="65" x="180" y="288.4951">versionId</text><text fill="#000000" font-family="sans-serif" font-size="14" lengthAdjust="spacing" textLength="549" x="274" y="288.4951">4e5a7629611f375eed28b769f015c214fc6fd3b28fe2252c2f579d18e2db3a19</text><line style="stroke:#A80036;stroke-width:1.0;" x1="269" x2="269" y1="273.5" y2="293.7969"/><line style="stroke:#A80036;stroke-width:1.0;" x1="175" x2="828" y1="293.7969" y2="293.7969"/><text fill="#000000" font-family="sans-serif" font-size="14" lengthAdjust="spacing" textLength="55" x="180" y="308.792">created</text><text fill="#000000" font-family="sans-serif" font-size="14" lengthAdjust="spacing" textLength="250" x="274" y="308.792">2021-08-12T20:56:26.867508903Z</text><line style="stroke:#A80036;stroke-width:1.0;" x1="269" x2="269" y1="293.7969" y2="314.0938"/><line style="stroke:#A80036;stroke-width:1.0;" x1="175" x2="828" y1="314.0938" y2="314.0938"/><text fill="#000000" font-family="sans-serif" font-size="14" lengthAdjust="spacing" textLength="59" x="180" y="329.0889">updated</text><text fill="#000000" font-family="sans-serif" font-size="14" lengthAdjust="spacing" textLength="250" x="274" y="329.0889">2021-08-12T20:56:26.867508903Z</text><line style="stroke:#A80036;stroke-width:1.0;" x1="269" x2="269" y1="314.0938" y2="334.3906"/><line style="stroke:#A80036;stroke-width:1.0;" x1="175" x2="828" y1="334.3906" y2="334.3906"/><text fill="#000000" font-family="sans-serif" font-size="14" lengthAdjust="spacing" textLength="84" x="180" y="349.3857">deactivated</text><text fill="#000000" font-family="sans-serif" font-size="14" lengthAdjust="spacing" textLength="51" x="274" y="349.3857">☐ false</text><line style="stroke:#A80036;stroke-width:1.0;" x1="269" x2="269" y1="334.3906" y2="354.6875"/><rect fill="none" height="81.1875" rx="5" ry="5" style="stroke:#A80036;stroke-width:1.5;" width="653" x="175" y="273.5"/><path d="M676,62 L689,62 C767.8873,62 786.4727,46.5285 865,39 C929.5953,32.8071 1001.9669,28.2379 1060.5281,25.1343 " fill="none" style="stroke:#A80036;stroke-width:1.0;stroke-dasharray:3.0,3.0;"/><path d="M1060.6917,28.2553 L1062.8688,25.0116 L1060.3644,22.0134 L1068.3304,24.7252 L1060.6917,28.2553 " fill="#A80036" style="stroke:#A80036;stroke-width:1.0;"/><ellipse cx="676" cy="62" fill="#A80036" rx="3" ry="3" style="stroke:#A80036;stroke-width:1.0;stroke-dasharray:3.0,3.0;"/><path d="M676,102 L689,102 C768.277,102 786.1939,81.6276 865,73 C974.9361,60.9643 1107.7857,57.301 1156.1982,56.3209 " fill="none" style="stroke:#A80036;stroke-width:1.0;stroke-dasharray:3.0,3.0;"/><path d="M1156.2577,59.4344 L1158.5333,56.2763 L1156.1387,53.2074 L1163.982,56.1722 L1156.2577,59.4344 " fill="#A80036" style="stroke:#A80036;stroke-width:1.0;"/><ellipse cx="676" cy="102" fill="#A80036" rx="3" ry="3" style="stroke:#A80036;stroke-width:1.0;stroke-dasharray:3.0,3.0;"/><path d="M1175.0339,92 L1188.0339,92 C1229.3277,92 1370.7236,92 1515.5974,92 " fill="none" style="stroke:#A80036;stroke-width:1.0;stroke-dasharray:3.0,3.0;"/><path d="M1515.5974,95.1117 L1517.9312,92 L1515.5974,88.8883 L1523.3767,92 L1515.5974,95.1117 " fill="#A80036" style="stroke:#A80036;stroke-width:1.0;"/><ellipse cx="1175.0339" cy="92" fill="#A80036" rx="3" ry="3" style="stroke:#A80036;stroke-width:1.0;stroke-dasharray:3.0,3.0;"/><path d="M676,123 L689,123 C767.4038,123 786.7599,116.0649 865,111 C975.3775,103.8547 1107.9093,95.9609 1156.2196,93.106 " fill="none" style="stroke:#A80036;stroke-width:1.0;stroke-dasharray:3.0,3.0;"/><path d="M1156.3971,96.1133 L1158.4751,92.9729 L1156.0421,90.0987 L1163.7378,92.6623 L1156.3971,96.1133 " fill="#A80036" style="stroke:#A80036;stroke-width:1.0;"/><ellipse cx="676" cy="123" fill="#A80036" rx="3" ry="3" style="stroke:#A80036;stroke-width:1.0;stroke-dasharray:3.0,3.0;"/><path d="M676,143 L689,143 C870.7729,143 1090.6062,132.3872 1155.8641,129.0154 " fill="none" style="stroke:#A80036;stroke-width:1.0;stroke-dasharray:3.0,3.0;"/><path d="M1156.0276,132.1504 L1158.2154,128.8927 L1155.7006,125.8803 L1163.7017,128.6066 L1156.0276,132.1504 " fill="#A80036" style="stroke:#A80036;stroke-width:1.0;"/><ellipse cx="676" cy="143" fill="#A80036" rx="3" ry="3" style="stroke:#A80036;stroke-width:1.0;stroke-dasharray:3.0,3.0;"/><path d="M676,164 L689,164 C743.5059,164 801.4504,164 857.6272,164 " fill="none" style="stroke:#A80036;stroke-width:1.0;stroke-dasharray:3.0,3.0;"/><path d="M857.6272,167.0222 L859.8939,164 L857.6272,160.9778 L865.1828,164 L857.6272,167.0222 " fill="#A80036" style="stroke:#A80036;stroke-width:1.0;"/><ellipse cx="676" cy="164" fill="#A80036" rx="3" ry="3" style="stroke:#A80036;stroke-width:1.0;stroke-dasharray:3.0,3.0;"/><path d="M676,184 L689,184 C870.7848,184 1090.61,195.3203 1155.865,198.9169 " fill="none" style="stroke:#A80036;stroke-width:1.0;stroke-dasharray:3.0,3.0;"/><path d="M1155.6906,202.0518 L1158.2162,199.0478 L1156.0394,195.782 L1163.7023,199.353 L1155.6906,202.0518 " fill="#A80036" style="stroke:#A80036;stroke-width:1.0;"/><ellipse cx="676" cy="184" fill="#A80036" rx="3" ry="3" style="stroke:#A80036;stroke-width:1.0;stroke-dasharray:3.0,3.0;"/><path d="M676,205 L689,205 C767.4038,205 786.7441,212.1867 865,217 C975.3587,223.7879 1107.9019,230.6129 1156.2174,233.0572 " fill="none" style="stroke:#A80036;stroke-width:1.0;stroke-dasharray:3.0,3.0;"/><path d="M1156.0656,236.0648 L1158.4731,233.171 L1156.3691,230.0495 L1163.7364,233.4365 L1156.0656,236.0648 " fill="#A80036" style="stroke:#A80036;stroke-width:1.0;"/><ellipse cx="676" cy="205" fill="#A80036" rx="3" ry="3" style="stroke:#A80036;stroke-width:1.0;stroke-dasharray:3.0,3.0;"/><path d="M676,225 L689,225 C768.0712,225 786.3296,243.049 865,251 C975.0325,262.1207 1107.824,266.3357 1156.2096,267.5709 " fill="none" style="stroke:#A80036;stroke-width:1.0;stroke-dasharray:3.0,3.0;"/><path d="M1156.1331,270.6827 L1158.5434,267.6282 L1156.286,264.4592 L1163.989,267.762 L1156.1331,270.6827 " fill="#A80036" style="stroke:#A80036;stroke-width:1.0;"/><ellipse cx="676" cy="225" fill="#A80036" rx="3" ry="3" style="stroke:#A80036;stroke-width:1.0;stroke-dasharray:3.0,3.0;"/><path d="M676,245 L689,245 C751.8539,245 769.4263,244.9601 829,265 C846.3481,270.8357 847.4142,279.9252 865,285 C971.722,315.7971 1107.5072,308.0276 1156.4071,303.8262 " fill="none" style="stroke:#A80036;stroke-width:1.0;stroke-dasharray:3.0,3.0;"/><path d="M1156.6811,306.8629 L1158.6846,303.6206 L1156.133,300.7894 L1163.999,303.141 L1156.6811,306.8629 " fill="#A80036" style="stroke:#A80036;stroke-width:1.0;"/><ellipse cx="676" cy="245" fill="#A80036" rx="3" ry="3" style="stroke:#A80036;stroke-width:1.0;stroke-dasharray:3.0,3.0;"/><path d="M126,223 L139,223 C194.4525,223 253.8515,215.0907 308.1683,204.6277 " fill="none" style="stroke:#A80036;stroke-width:1.0;stroke-dasharray:3.0,3.0;"/><path d="M308.7654,207.6795 L310.4572,204.1798 L307.5712,201.5758 L315.7979,203.1349 L308.7654,207.6795 " fill="#A80036" style="stroke:#A80036;stroke-width:1.0;"/><ellipse cx="126" cy="223" fill="#A80036" rx="3" ry="3" style="stroke:#A80036;stroke-width:1.0;stroke-dasharray:3.0,3.0;"/><path d="M126,244 L139,244 C157.5233,244 157.5287,258.8466 175,265 C181.111,267.1523 187.319,269.21 193.6035,271.1774 " fill="none" style="stroke:#A80036;stroke-width:1.0;stroke-dasharray:3.0,3.0;"/><path d="M192.6962,274.142 L195.8269,271.8579 L194.5108,268.2129 L201.0149,273.4457 L192.6962,274.142 " fill="#A80036" style="stroke:#A80036;stroke-width:1.0;"/><ellipse cx="126" cy="244" fill="#A80036" rx="3" ry="3" style="stroke:#A80036;stroke-width:1.0;stroke-dasharray:3.0,3.0;"/><!--MD5=[e7f83fc9d730c7a9f7d5f7f55a59b906]
@startjson QueryDidDocumentResponse_Cosmos
#skinparam monochrome true
#highlight "id"

{
  "didDocument": {
    "context": [
      "https://www.w3.org/ns/did/v1"
    ],
    "id": "did:cosmos:cash:123456789",
    "controller": [],
    "verificationMethods": [
      {
        "id": "did:cosmos:cash:123456789#cosmos17km4mldepzm4xxc50wv24ygrumtmskrd8f4tfh",
        "type": "EcdsaSecp256k1VerificationKey2019",
        "controller": "did:cosmos:cash:123456789",
        "publicKeyHex": "0381517311d6b3e6f849fc617b721f7d84ca8c28d006677bb7a5ea09423049368b"
      }
    ],
    "services": [],
    "authentication": [
      "did:cosmos:cash:123456789#cosmos17km4mldepzm4xxc50wv24ygrumtmskrd8f4tfh"
    ],
    "assertionMethod": [],
    "keyAgreement": [],
    "capabilityInvocation": [],
    "capabilityDelegation": []
  },
  "didMetadata": {
    "versionId": "4e5a7629611f375eed28b769f015c214fc6fd3b28fe2252c2f579d18e2db3a19",
    "created": "2021-08-12T20:56:26.867508903Z",
    "updated": "2021-08-12T20:56:26.867508903Z",
    "deactivated": false
  }
}
@endjson

PlantUML version 1.2021.7(Sun May 23 14:40:07 CEST 2021)
(GPL source distribution)
Java Runtime: Java(TM) SE Runtime Environment
JVM: Java HotSpot(TM) 64-Bit Server VM
Default Encoding: UTF-8
Language: en
Country: US
--></g></svg>